<svg width="64" height="64" viewBox="0 0 256 256" fill="none" xmlns="http://www.w3.org/2000/svg">
  <rect width="256" height="256" rx="56" fill="#F8FAFC"/>
  <rect x="32" y="48" width="192" height="32" rx="16" fill="#AA151B"/>
  <rect x="32" y="80" width="192" height="96" fill="#F1BF00"/>
  <rect x="32" y="176" width="192" height="32" rx="16" fill="#AA151B"/>
  <path d="M86 186V70H142C172 70 190 84 190 109C190 127 181 139 164 145L193 186H160L137 152H118V186H86ZM118 127H139C151 127 158 121 158 111C158 101 151 96 139 96H118V127Z" fill="#111827"/>
</svg>
